<svg width="16" height="18" viewBox="0 0 16 18" fill="none" xmlns="http://www.w3.org/2000/svg">
<path d="M8 1.125C8.75776 1.125 9.48449 1.42132 10.0203 1.94876C10.5561 2.47621 10.8571 3.19158 10.8571 3.9375V4.5H5.14286V3.9375C5.14286 3.19158 5.44388 2.47621 5.9797 1.94876C6.51551 1.42132 7.24224 1.125 8 1.125ZM12 4.5V3.9375C12 2.89321 11.5786 1.89169 10.8284 1.15327C10.0783 0.414843 9.06087 0 8 0C6.93913 0 5.92172 0.414843 5.17157 1.15327C4.42143 1.89169 4 2.89321 4 3.9375V4.5H0V15.75C0 16.3467 0.240816 16.919 0.66947 17.341C1.09812 17.7629 1.67951 18 2.28571 18H13.7143C14.3205 18 14.9019 17.7629 15.3305 17.341C15.7592 16.919 16 16.3467 16 15.75V4.5H12ZM1.14286 5.625H14.8571V15.75C14.8571 16.0484 14.7367 16.3345 14.5224 16.5455C14.3081 16.7565 14.0174 16.875 13.7143 16.875H2.28571C1.98261 16.875 1.69192 16.7565 1.47759 16.5455C1.26327 16.3345 1.14286 16.0484 1.14286 15.75V5.625Z" fill="white"/>
</svg>
