<svg width="48" height="36" viewBox="0 0 48 36" fill="none" xmlns="http://www.w3.org/2000/svg">
<path d="M48.0013 16.5004C48.0015 17.9354 47.5901 19.3402 46.8159 20.5484C46.0417 21.7565 44.9371 22.7172 43.6333 23.3164C43.1107 22.3994 42.4534 21.5661 41.6833 20.8444C42.8354 20.5305 43.8156 19.7718 44.4083 18.7352C45.001 17.6986 45.1576 16.469 44.8438 15.3169C44.5299 14.1648 43.7712 13.1846 42.7346 12.5919C41.698 11.9992 40.4684 11.8425 39.3163 12.1564C39.1089 12.2126 38.8919 12.2236 38.68 12.1887C38.468 12.1538 38.266 12.0737 38.0877 11.954C37.9093 11.8342 37.7588 11.6776 37.6462 11.4946C37.5337 11.3116 37.4617 11.1066 37.4353 10.8934C37.2231 9.1754 36.52 7.55501 35.4102 6.22649C34.3004 4.89796 32.831 3.91768 31.1782 3.40315C29.5254 2.88862 27.7592 2.86167 26.0914 3.32553C24.4237 3.78939 22.9251 4.72438 21.7753 6.01842C20.4934 5.9596 19.209 6.04817 17.9473 6.28242C19.0977 4.16386 20.8593 2.44071 23.0028 1.33728C25.1462 0.233856 27.5722 -0.198734 29.9649 0.0958242C32.3576 0.390383 34.6063 1.39845 36.4181 2.98879C38.2299 4.57913 39.521 6.67809 40.1233 9.01242C41.1385 8.96119 42.1536 9.11688 43.1068 9.47002C44.06 9.82317 44.9315 10.3664 45.6683 11.0667C46.4051 11.7671 46.9919 12.6099 47.3929 13.544C47.794 14.478 48.0009 15.4839 48.0013 16.5004Z" fill="url(#paint0_radial_3624_161)"/>
<path d="M21.0009 9C24.3221 8.99936 27.5269 10.223 30.0026 12.4368C32.4782 14.6507 34.0509 17.6994 34.4199 21H34.5009C36.4901 21 38.3977 21.7902 39.8042 23.1967C41.2108 24.6032 42.0009 26.5109 42.0009 28.5C42.0009 30.4891 41.2108 32.3968 39.8042 33.8033C38.3977 35.2098 36.4901 36 34.5009 36H9.00095C6.67702 36.0018 4.4425 35.1045 2.76512 33.4961C1.08774 31.8877 0.0975363 29.6928 0.00178967 27.3708C-0.0939569 25.0489 0.712173 22.7799 2.25144 21.0388C3.7907 19.2977 5.94377 18.2196 8.25995 18.03C9.18702 15.3907 10.9107 13.1044 13.193 11.4869C15.4753 9.86932 18.2036 9.00036 21.0009 9ZM31.5009 22.5C31.5027 19.9426 30.5711 17.4724 28.8808 15.5531C27.1906 13.6339 24.858 12.3975 22.3208 12.076C19.7836 11.7545 17.2164 12.3701 15.1009 13.8071C12.9854 15.2442 11.4671 17.4039 10.8309 19.881C10.7449 20.2163 10.5455 20.5114 10.2667 20.7165C9.9878 20.9215 9.64661 21.0238 9.30095 21.006C8.50402 20.9706 7.70805 21.0945 6.95958 21.3704C6.2111 21.6463 5.52516 22.0687 4.94188 22.6129C4.35859 23.157 3.88967 23.812 3.56254 24.5396C3.23542 25.2671 3.05665 26.0526 3.03671 26.8501C3.01676 27.6475 3.15603 28.441 3.44638 29.1839C3.73672 29.9269 4.17231 30.6046 4.72766 31.1772C5.28301 31.7499 5.94698 32.206 6.68072 32.519C7.41446 32.832 8.20325 32.9955 9.00095 33H34.5009C35.139 32.9985 35.7695 32.8614 36.3505 32.5977C36.9315 32.3339 37.4498 31.9497 37.8709 31.4703C38.2921 30.991 38.6065 30.4276 38.7933 29.8175C38.9802 29.2074 39.0351 28.5646 38.9545 27.9316C38.8739 27.2987 38.6596 26.6901 38.3259 26.1463C37.9921 25.6025 37.5466 25.1358 37.0187 24.7773C36.4909 24.4189 35.8928 24.1767 35.2643 24.067C34.6357 23.9573 33.991 23.9825 33.3729 24.141C33.1495 24.1982 32.916 24.2032 32.6903 24.1554C32.4647 24.1077 32.2531 24.0086 32.072 23.8658C31.8909 23.723 31.7452 23.5404 31.6462 23.3321C31.5471 23.1239 31.4974 22.8956 31.5009 22.665V22.5Z" fill="url(#paint1_radial_3624_161)"/>
<defs>
<radialGradient id="paint0_radial_3624_161" cx="0" cy="0" r="1" gradientUnits="userSpaceOnUse" gradientTransform="translate(33.0521 0.00585868) rotate(90.1914) scale(23.3107 30.0568)">
<stop stop-color="#ABFF8D"/>
<stop offset="1" stop-color="#26D20B"/>
</radialGradient>
<radialGradient id="paint1_radial_3624_161" cx="0" cy="0" r="1" gradientUnits="userSpaceOnUse" gradientTransform="translate(21.1064 9) rotate(90.2309) scale(27.0002 42.0107)">
<stop stop-color="#ABFF8D"/>
<stop offset="1" stop-color="#26D20B"/>
</radialGradient>
</defs>
</svg>
